<?xml version="1.0" encoding="utf-8"?>
<!-- Generator: Adobe Illustrator 16.0.0, SVG Export Plug-In . SVG Version: 6.00 Build 0)  -->
<!DOCTYPE svg PUBLIC "-//W3C//DTD SVG 1.1//EN" "http://www.w3.org/Graphics/SVG/1.1/DTD/svg11.dtd">
<svg version="1.1" id="icons" xmlns="http://www.w3.org/2000/svg" xmlns:xlink="http://www.w3.org/1999/xlink" x="0px" y="0px"
	 width="64px" height="64px" viewBox="0 0 64 64" enable-background="new 0 0 64 64" xml:space="preserve">
<g>
	<path d="M29.03,5c0.552,0,1-0.448,1-1s-0.448-1-1-1H29.02c-0.552,0-0.994,0.448-0.994,1S28.478,5,29.03,5z"/>
	<path d="M32,5h3c0.553,0,1-0.448,1-1s-0.447-1-1-1h-3c-0.553,0-1,0.448-1,1S31.447,5,32,5z"/>
	<path d="M21,64h22c3.859,0,7-3.141,7-7V6.002c0-3.304-2.685-5.992-5.987-6C44.009,0.002,44.005,0,44,0H20c-3.309,0-6,2.691-6,6v51
		C14,60.859,17.141,64,21,64z M43,62H21c-2.418,0-4.438-1.726-4.9-4.01C17.364,59.231,19.094,60,21,60h22
		c1.906,0,3.636-0.769,4.9-2.01C47.438,60.274,45.418,62,43,62z M48,50H16V8.002h32V50z M16,52h16h16v1c0,2.757-2.243,5-5,5H32H21
		c-2.757,0-5-2.243-5-5V52z M20,2h23.99c0.004,0,0.006,0.002,0.01,0.002c2.206,0,4,1.794,4,4H16V6C16,3.794,17.794,2,20,2z"/>
	<path d="M29,55c0,1.654,1.346,3,3,3s3-1.346,3-3s-1.346-3-3-3S29,53.346,29,55z M32,54c0.552,0,1,0.448,1,1s-0.448,1-1,1
		s-1-0.448-1-1S31.448,54,32,54z"/>
</g>
</svg>
