<?xml version="1.0" standalone="no"?>
<!DOCTYPE svg PUBLIC "-//W3C//DTD SVG 20010904//EN"
 "http://www.w3.org/TR/2001/REC-SVG-20010904/DTD/svg10.dtd">
<svg version="1.0" xmlns="http://www.w3.org/2000/svg"
 width="512.000000pt" height="512.000000pt" viewBox="0 0 512.000000 512.000000"
 preserveAspectRatio="xMidYMid meet">

<g transform="translate(0.000000,512.000000) scale(0.100000,-0.100000)"
fill="#000000" stroke="none">
<path d="M2305 4850 c-538 -71 -990 -294 -1362 -671 -182 -185 -310 -365 -423
-594 -152 -311 -224 -597 -237 -945 -30 -837 387 -1612 1107 -2055 504 -310
1133 -405 1721 -259 638 158 1191 607 1489 1209 400 807 292 1782 -275 2480
-86 106 -251 271 -350 350 -297 239 -667 404 -1055 471 -112 19 -507 28 -615
14z m580 -105 c864 -135 1572 -778 1789 -1626 19 -74 43 -189 52 -254 23 -161
23 -449 0 -610 -147 -1016 -953 -1796 -1960 -1894 -1059 -104 -2053 599 -2320
1640 -52 202 -69 344 -69 559 0 290 48 555 148 806 307 775 994 1302 1820
1394 112 12 420 4 540 -15z"/>
<path d="M2360 4549 c-175 -18 -381 -70 -550 -141 -677 -281 -1145 -916 -1220
-1657 -48 -483 93 -991 386 -1388 413 -558 1106 -866 1782 -792 940 102 1668
835 1771 1781 46 414 -51 862 -264 1223 -394 670 -1139 1051 -1905 974z m469
-105 c325 -47 652 -189 901 -391 168 -136 345 -341 454 -525 443 -754 316
-1715 -309 -2332 -384 -378 -928 -580 -1447 -537 -257 22 -464 78 -683 185
-458 225 -799 612 -965 1093 -137 396 -137 850 0 1247 138 400 404 741 765
979 222 146 520 254 800 290 86 11 386 6 484 -9z"/>
<path d="M2519 4327 c-10 -23 -9 -30 6 -47 14 -16 31 -20 76 -20 87 0 275 -27
382 -55 243 -63 490 -195 685 -367 333 -295 549 -737 569 -1172 5 -97 9 -122
25 -138 23 -23 33 -23 59 3 19 19 20 28 14 112 -28 381 -134 684 -342 974
-255 358 -647 610 -1088 703 -56 11 -161 23 -237 27 l-137 6 -12 -26z"/>
<path d="M2510 4050 l0 -130 50 0 50 0 0 130 0 130 -50 0 -50 0 0 -130z"/>
<path d="M1760 3959 c-19 -12 -36 -23 -38 -24 -2 -2 25 -53 60 -114 l63 -110
40 24 c22 13 39 30 37 37 -6 21 -114 208 -121 208 -3 0 -22 -10 -41 -21z"/>
<path d="M3257 3881 c-31 -55 -58 -104 -59 -110 -2 -6 15 -22 37 -35 l40 -24
63 109 c34 60 62 110 62 113 0 5 -69 46 -78 46 -4 0 -33 -45 -65 -99z"/>
<path d="M2486 3823 l-56 -58 0 -467 0 -467 -27 -15 c-16 -8 -42 -29 -59 -48
-169 -178 -64 -477 178 -507 l51 -6 154 -220 c85 -121 160 -223 166 -226 24
-13 145 -32 161 -26 22 9 33 40 41 117 l7 65 -147 209 -147 210 24 50 c34 74
33 192 -4 262 -25 47 -109 134 -129 134 -5 0 -9 210 -9 468 l0 467 -56 58
c-31 31 -64 57 -74 57 -10 0 -43 -26 -74 -57z m96 -80 c17 -15 18 -42 18 -450
l0 -433 -40 0 -40 0 0 432 c0 387 2 433 17 450 20 22 22 22 45 1z m88 -1007
c137 -91 124 -294 -23 -365 -205 -99 -394 172 -233 334 23 22 57 46 76 52 57
19 133 10 180 -21z m205 -612 c103 -146 129 -191 127 -212 -5 -34 -5 -34 -35
-27 -18 5 -59 55 -148 182 -157 224 -146 202 -118 224 13 10 29 19 34 19 6 0
69 -83 140 -186z"/>
<path d="M2505 2696 c-102 -44 -122 -172 -40 -245 64 -56 147 -50 204 14 53
61 50 143 -7 198 -48 46 -102 57 -157 33z m93 -98 c7 -7 12 -24 12 -38 0 -33
-17 -50 -50 -50 -14 0 -31 5 -38 12 -7 7 -12 24 -12 38 0 33 17 50 50 50 14 0
31 -5 38 -12z"/>
<path d="M1192 3397 c-5 -6 -17 -26 -26 -44 l-16 -32 106 -60 c58 -34 109 -61
112 -61 7 0 54 82 50 85 -3 2 -198 115 -209 121 -4 2 -11 -2 -17 -9z"/>
<path d="M3815 3349 c-55 -32 -104 -60 -108 -61 -9 -4 34 -88 46 -88 4 0 55
27 112 61 l104 61 -19 38 c-11 21 -23 41 -27 43 -5 3 -53 -21 -108 -54z"/>
<path d="M960 2560 l0 -50 130 0 130 0 0 50 0 50 -130 0 -130 0 0 -50z"/>
<path d="M3910 2560 l0 -50 125 0 125 0 0 50 0 50 -125 0 -125 0 0 -50z"/>
<path d="M1260 1859 c-58 -34 -107 -63 -109 -65 -2 -2 30 -62 45 -83 2 -1 52
25 113 60 110 62 110 62 96 88 -35 67 -30 67 -145 0z"/>
<path d="M3722 1878 c-12 -23 -21 -42 -20 -43 17 -13 197 -114 207 -117 8 -2
24 15 37 37 l23 40 -107 62 c-59 35 -109 63 -112 63 -3 0 -15 -19 -28 -42z"/>
<path d="M1782 1298 c-50 -87 -61 -113 -50 -120 19 -13 66 -38 71 -38 6 0 114
190 119 208 2 7 -15 24 -37 37 l-40 24 -63 -111z"/>
<path d="M3235 1384 c-22 -13 -39 -29 -37 -35 3 -11 110 -200 117 -207 4 -5
85 37 85 44 0 4 -112 203 -124 221 -1 1 -19 -10 -41 -23z"/>
<path d="M2510 1070 l0 -130 50 0 50 0 0 130 0 130 -50 0 -50 0 0 -130z"/>
</g>
</svg>
