<?xml version="1.0" standalone="no"?>
<!DOCTYPE svg PUBLIC "-//W3C//DTD SVG 20010904//EN"
 "http://www.w3.org/TR/2001/REC-SVG-20010904/DTD/svg10.dtd">
<svg version="1.0" xmlns="http://www.w3.org/2000/svg"
 width="512.000000pt" height="512.000000pt" viewBox="0 0 512.000000 512.000000"
 preserveAspectRatio="xMidYMid meet">

<g transform="translate(0.000000,512.000000) scale(0.100000,-0.100000)"
fill="#000000" stroke="none">
<path d="M2415 4810 c-221 -35 -433 -152 -557 -308 -92 -116 -144 -235 -169
-386 -15 -97 -7 -340 15 -416 8 -30 18 -65 22 -77 l6 -23 -335 0 -335 0 -4
158 c-3 148 -5 160 -31 213 -41 84 -98 143 -175 181 -63 31 -73 33 -172 33
-95 0 -111 -3 -162 -28 -74 -36 -159 -128 -190 -204 l-23 -58 0 -1650 0 -1650
24 -60 c33 -82 124 -173 206 -206 l60 -24 1935 -3 c1439 -2 1949 0 1990 8 115
25 216 107 268 218 l27 57 3 1642 2 1643 -21 62 c-39 117 -127 206 -241 244
-77 25 -208 16 -281 -20 -76 -37 -144 -107 -181 -186 -29 -62 -31 -72 -34
-217 l-4 -153 -335 0 c-297 0 -334 2 -329 15 17 46 37 144 47 233 33 305 -75
591 -288 767 -86 70 -243 149 -353 175 -98 24 -294 34 -385 20z m370 -119
c162 -42 319 -142 410 -263 104 -137 146 -275 147 -473 0 -217 -35 -327 -216
-680 -164 -318 -562 -1007 -573 -992 -10 12 -219 374 -391 677 -135 239 -303
580 -339 690 -71 216 -64 456 18 638 98 218 299 368 557 417 103 19 281 13
387 -14z m-1975 -629 c61 -30 120 -99 139 -162 8 -27 11 -442 11 -1500 l0
-1462 -37 32 c-20 18 -62 45 -93 59 -47 22 -69 26 -150 26 -81 0 -103 -4 -150
-26 -31 -14 -73 -41 -93 -59 l-37 -32 0 1460 c0 1594 -3 1497 57 1584 14 21
47 51 73 68 86 55 183 59 280 12z m3738 12 c55 -22 106 -69 138 -126 l29 -53
3 -1479 2 -1478 -37 32 c-128 113 -331 117 -471 10 l-52 -40 2 1478 3 1477 29
53 c28 51 73 94 124 121 59 31 161 33 230 5z m-3217 -1304 c109 -399 197 -725
196 -726 -1 -1 -99 -27 -217 -59 -118 -32 -223 -60 -232 -63 -17 -4 -18 38
-18 787 l0 792 36 -3 37 -3 198 -725z m429 39 c101 -380 189 -701 195 -713 6
-11 20 -22 31 -24 11 -2 122 24 246 58 124 33 233 60 242 60 9 0 24 -16 33
-35 32 -68 78 -59 122 25 18 33 36 62 40 65 5 2 91 27 192 55 183 49 215 65
205 99 -3 9 -26 97 -52 195 l-48 179 24 41 c13 23 65 117 116 210 l93 168 10
-38 c117 -439 184 -681 191 -688 5 -5 19 -8 32 -8 17 0 512 128 611 158 16 5
17 -8 17 -168 l0 -173 -260 -69 c-144 -39 -270 -76 -280 -83 -11 -8 -20 -24
-20 -36 0 -12 100 -395 223 -852 l222 -830 -159 -3 c-87 -1 -161 0 -164 3 -3
3 -99 363 -213 801 -114 437 -213 802 -220 810 -6 8 -19 14 -28 14 -25 0
-1075 -282 -1088 -293 -7 -5 -13 -19 -13 -30 0 -11 77 -306 170 -655 94 -348
170 -638 170 -643 0 -6 -64 -8 -162 -7 l-161 3 -162 602 c-89 331 -167 609
-175 617 -7 9 -20 16 -30 16 -15 0 -564 -144 -632 -166 -17 -5 -18 5 -18 170
0 97 2 176 5 176 3 0 126 32 273 71 168 45 274 78 286 89 19 18 15 34 -186
769 l-205 751 171 0 171 0 185 -691z m117 483 c56 -114 204 -386 329 -605 125
-219 225 -399 223 -401 -9 -7 -392 -106 -396 -102 -4 4 -353 1296 -353 1309 0
4 21 7 48 6 l47 0 102 -207z m2183 -182 c0 -214 -3 -390 -6 -390 -3 0 -134
-34 -290 -77 -167 -44 -288 -72 -293 -67 -4 5 -52 175 -106 377 l-98 368 32
72 c18 40 35 80 38 90 5 16 31 17 364 17 l359 0 0 -390z m-1132 -574 c20 -73
26 -109 18 -111 -46 -16 -200 -54 -204 -51 -2 2 32 65 74 140 43 74 79 134 80
133 2 -1 16 -51 32 -111z m1132 -1120 c0 -673 2 -756 16 -770 35 -35 84 -7 84
48 0 98 88 216 184 249 105 36 220 10 293 -65 65 -68 78 -100 78 -198 0 -102
-19 -146 -90 -208 -74 -65 -107 -72 -356 -72 l-217 0 -11 33 c-38 120 -431
1610 -426 1616 7 6 410 119 433 120 9 1 12 -156 12 -753z m-935 482 c4 -13 93
-354 199 -758 l192 -735 -500 -3 c-275 -1 -503 1 -507 5 -8 9 -342 1254 -337
1258 3 3 927 253 940 254 4 1 10 -9 13 -21z m-1304 -923 c81 -302 148 -556
149 -562 0 -10 -140 -13 -668 -13 -766 0 -729 -4 -819 85 -111 112 -111 278 1
390 65 65 130 90 220 83 72 -6 116 -26 169 -77 51 -48 75 -97 86 -172 8 -62
20 -79 57 -79 43 0 44 6 44 382 l0 358 24 6 c13 3 144 39 292 79 148 40 275
73 283 72 10 -1 59 -169 162 -552z"/>
<path d="M2445 4326 c-116 -37 -207 -116 -258 -224 -30 -62 -32 -74 -31 -172
0 -91 3 -112 26 -160 139 -299 538 -337 717 -69 56 84 74 152 69 253 -9 172
-118 314 -282 369 -59 20 -183 21 -241 3z m253 -116 c65 -33 109 -76 144 -143
19 -35 23 -58 23 -137 0 -80 -4 -102 -23 -138 -31 -58 -88 -114 -148 -143 -69
-34 -198 -35 -266 -1 -60 30 -120 90 -150 150 -33 67 -33 208 0 269 35 67 78
110 144 143 52 26 72 30 138 30 66 0 86 -4 138 -30z"/>
</g>
</svg>
