<?xml version="1.0" standalone="no"?>
<!DOCTYPE svg PUBLIC "-//W3C//DTD SVG 20010904//EN"
 "http://www.w3.org/TR/2001/REC-SVG-20010904/DTD/svg10.dtd">
<svg version="1.0" xmlns="http://www.w3.org/2000/svg"
 width="512.000000pt" height="512.000000pt" viewBox="0 0 512.000000 512.000000"
 preserveAspectRatio="xMidYMid meet">

<g transform="translate(0.000000,512.000000) scale(0.100000,-0.100000)"
fill="#000000" stroke="none">
<path d="M2488 5107 c-72 -27 -130 -70 -261 -190 -180 -166 -191 -172 -297
-172 -62 1 -121 10 -220 35 -109 27 -155 34 -240 34 -95 1 -110 -2 -162 -27
-109 -54 -157 -131 -238 -387 -28 -91 -63 -184 -77 -208 -35 -61 -96 -96 -248
-143 -286 -88 -355 -130 -407 -244 -34 -77 -30 -174 17 -365 48 -193 52 -276
15 -335 -13 -22 -71 -89 -128 -150 -190 -201 -222 -258 -222 -395 0 -137 31
-193 209 -383 61 -65 123 -139 138 -165 38 -64 36 -127 -12 -322 -51 -204 -54
-307 -12 -392 49 -100 112 -138 378 -224 252 -83 269 -100 348 -364 90 -298
171 -392 350 -407 75 -6 144 4 332 48 165 38 228 38 294 0 28 -16 105 -80 172
-142 301 -282 410 -278 734 27 58 55 123 109 145 120 59 29 144 24 328 -20
205 -48 299 -51 381 -12 100 49 151 136 225 380 77 258 93 272 375 357 167 50
241 85 306 146 101 94 114 216 53 481 -22 93 -37 185 -38 227 -1 89 17 122
145 260 194 210 224 261 224 385 0 123 -19 155 -214 370 -141 155 -166 203
-156 295 3 36 20 120 37 187 38 159 48 313 24 386 -38 115 -141 187 -356 252
-166 50 -234 78 -279 116 -53 46 -71 81 -119 240 -81 260 -119 325 -227 382
-74 39 -186 38 -360 -5 -231 -58 -301 -59 -373 -9 -20 14 -99 84 -175 155 -89
84 -158 140 -193 157 -65 32 -161 41 -216 21z m139 -151 c33 -16 94 -65 177
-144 69 -67 145 -134 168 -150 114 -77 219 -85 438 -32 174 42 292 50 337 21
44 -28 82 -106 133 -276 49 -165 97 -262 154 -312 54 -47 154 -92 304 -137
207 -62 280 -103 303 -173 16 -50 6 -174 -26 -308 -77 -319 -62 -377 164 -624
138 -150 171 -200 171 -258 0 -72 -32 -120 -195 -293 -110 -117 -149 -176
-171 -260 -20 -78 -15 -132 29 -320 23 -99 31 -160 31 -231 1 -89 -1 -98 -27
-132 -35 -47 -116 -84 -282 -132 -318 -91 -357 -133 -470 -500 -83 -267 -111
-281 -425 -205 -153 37 -186 42 -260 38 -125 -6 -173 -33 -339 -192 -193 -183
-257 -214 -349 -167 -21 11 -103 78 -182 150 -183 168 -233 195 -370 199 -77
3 -124 -2 -250 -29 -184 -38 -301 -44 -343 -16 -51 33 -86 97 -128 231 -119
383 -146 412 -468 516 -193 61 -257 93 -285 140 -26 45 -20 129 25 314 36 149
41 182 37 256 -7 127 -31 168 -220 369 -122 130 -158 190 -158 266 0 80 35
138 178 288 162 170 194 226 200 347 4 73 -1 107 -34 240 -45 187 -51 291 -19
337 29 39 127 86 285 134 164 50 223 77 284 130 57 51 110 158 156 314 63 214
101 282 175 311 58 22 122 16 310 -27 192 -44 314 -46 398 -7 69 32 157 101
242 188 73 75 144 128 193 146 49 17 49 17 109 -10z"/>
<path d="M2450 4049 c-635 -37 -1196 -507 -1355 -1134 -38 -150 -48 -253 -42
-430 6 -170 20 -251 69 -405 184 -579 726 -1004 1328 -1039 214 -12 395 10
586 74 237 79 436 205 614 391 499 521 555 1323 133 1917 -74 105 -245 276
-350 350 -166 118 -381 212 -578 252 -105 22 -274 32 -405 24z m280 -154 c302
-41 550 -160 769 -370 197 -190 325 -415 389 -688 22 -98 26 -134 26 -287 1
-191 -10 -266 -65 -435 -103 -323 -351 -616 -659 -779 -314 -165 -704 -201
-1039 -94 -663 210 -1065 879 -936 1556 104 548 554 994 1095 1086 172 29 271
32 420 11z"/>
<path d="M3250 3351 c-63 -20 -112 -66 -517 -475 -237 -240 -435 -436 -439
-436 -5 0 -87 78 -184 174 -112 112 -189 180 -215 191 -52 23 -157 23 -208 1
-57 -25 -112 -80 -137 -138 -28 -64 -25 -152 8 -218 15 -32 122 -145 360 -383
311 -310 341 -337 373 -337 32 -1 69 35 642 612 396 399 614 627 627 654 56
114 -3 274 -125 336 -43 22 -144 33 -185 19z m131 -157 c38 -19 63 -74 54
-118 -5 -24 -131 -156 -573 -598 l-565 -567 -291 286 c-160 156 -299 297 -308
311 -23 34 -23 101 0 128 36 45 98 57 150 30 15 -8 114 -102 221 -210 169
-171 198 -196 225 -196 28 0 82 51 496 466 256 256 474 469 485 474 32 14 73
11 106 -6z"/>
</g>
</svg>
