<?xml version="1.0" standalone="no"?>
<!DOCTYPE svg PUBLIC "-//W3C//DTD SVG 20010904//EN"
 "http://www.w3.org/TR/2001/REC-SVG-20010904/DTD/svg10.dtd">
<svg version="1.0" xmlns="http://www.w3.org/2000/svg"
 width="512.000000pt" height="512.000000pt" viewBox="0 0 512.000000 512.000000"
 preserveAspectRatio="xMidYMid meet">

<g transform="translate(0.000000,512.000000) scale(0.100000,-0.100000)"
fill="#000000" stroke="none">
<path d="M2370 5114 c-19 -2 -78 -9 -130 -15 -791 -90 -1522 -586 -1924 -1305
-146 -262 -252 -588 -297 -914 -18 -125 -18 -515 0 -640 105 -762 511 -1409
1146 -1826 609 -400 1377 -517 2090 -317 929 260 1646 1043 1819 1987 156 845
-103 1682 -705 2285 -399 398 -879 639 -1449 726 -100 15 -472 28 -550 19z
m464 -89 c403 -47 761 -177 1089 -395 599 -398 983 -1003 1094 -1720 25 -161
25 -539 0 -700 -158 -1023 -895 -1828 -1892 -2065 -195 -47 -315 -59 -560 -60
-235 0 -321 8 -510 47 -931 190 -1691 928 -1908 1853 -82 347 -88 728 -17
1074 157 771 695 1442 1416 1765 248 110 511 179 804 209 96 10 369 5 484 -8z"/>
<path d="M2425 4879 c-465 -23 -932 -199 -1309 -497 -91 -71 -307 -287 -378
-378 -329 -417 -499 -909 -499 -1444 0 -535 170 -1027 499 -1444 72 -91 287
-307 377 -378 308 -241 664 -401 1045 -468 157 -28 484 -38 652 -21 424 45
850 219 1193 489 90 71 306 287 377 378 210 266 379 620 447 934 93 433 63
898 -83 1305 -77 212 -220 467 -364 649 -83 105 -254 278 -357 361 -394 319
-884 501 -1385 517 -47 2 -143 0 -215 -3z m440 -95 c301 -41 601 -148 864
-308 293 -178 568 -453 744 -742 222 -365 329 -747 329 -1174 0 -375 -82 -713
-252 -1037 -114 -218 -233 -378 -414 -558 -348 -345 -774 -557 -1271 -630
-149 -23 -461 -23 -610 0 -502 75 -934 291 -1285 644 -349 351 -565 784 -635
1276 -23 161 -23 449 0 610 70 492 286 925 635 1276 503 504 1190 738 1895
643z"/>
<path d="M2531 4636 c-8 -9 -11 -87 -9 -261 3 -223 5 -249 21 -259 12 -8 22
-8 35 0 15 10 17 36 20 259 2 256 0 275 -38 275 -10 0 -23 -6 -29 -14z"/>
<path d="M1507 4364 c-4 -4 -7 -16 -7 -27 0 -26 230 -426 252 -438 13 -7 23
-4 38 11 l21 21 -39 72 c-22 40 -78 137 -125 217 -68 117 -89 146 -109 148
-13 2 -27 0 -31 -4z"/>
<path d="M3507 4278 c-106 -180 -197 -342 -197 -349 0 -17 43 -38 59 -29 9 4
69 101 134 214 125 217 135 248 85 254 -24 3 -32 -6 -81 -90z"/>
<path d="M1840 3660 c-28 -28 -33 -60 -18 -106 8 -21 119 -216 247 -432 150
-252 231 -399 228 -410 -3 -9 -13 -37 -22 -62 -12 -31 -16 -65 -12 -110 7
-107 62 -192 159 -246 47 -26 63 -29 138 -29 75 0 91 3 138 29 93 52 150 137
159 236 l5 56 296 190 c163 104 309 200 326 214 42 35 60 84 44 118 -17 36
-55 54 -98 47 -19 -4 -183 -83 -365 -176 l-330 -170 -45 22 c-25 12 -72 24
-105 26 l-61 5 -270 387 c-170 243 -283 394 -304 409 -41 27 -84 28 -110 2z
m336 -437 c140 -200 257 -370 260 -376 3 -10 -74 -64 -80 -55 -26 37 -456 773
-461 787 -19 62 49 -25 281 -356z m1274 -152 c0 -5 -7 -14 -15 -21 -36 -30
-588 -379 -594 -376 -9 7 -45 76 -40 79 2 2 99 52 214 112 116 59 256 132 313
161 103 54 122 61 122 45z m-818 -303 c22 -6 59 -30 82 -52 88 -86 88 -224 1
-311 -138 -138 -375 -40 -375 155 0 61 19 108 64 154 61 63 139 81 228 54z"/>
<path d="M754 3606 c-3 -8 -4 -23 -2 -32 3 -15 246 -164 392 -241 l50 -25 18
22 c12 15 15 27 9 38 -13 23 -412 252 -440 252 -12 0 -24 -6 -27 -14z"/>
<path d="M4111 3502 c-111 -65 -208 -126 -213 -136 -8 -14 -5 -23 10 -39 l21
-20 108 61 c304 171 328 186 328 218 0 54 -35 43 -254 -84z"/>
<path d="M482 2588 c-16 -16 -15 -43 2 -57 9 -8 87 -11 261 -9 223 3 249 5
259 21 8 12 8 22 0 35 -10 15 -36 17 -260 20 -186 2 -253 -1 -262 -10z"/>
<path d="M4122 2588 c-16 -16 -15 -43 2 -57 9 -8 87 -11 261 -9 223 3 249 5
259 21 8 12 8 22 0 35 -10 15 -36 17 -260 20 -186 2 -253 -1 -262 -10z"/>
<path d="M1059 1739 c-312 -179 -310 -178 -307 -207 6 -51 37 -40 254 85 113
65 210 126 216 136 7 14 5 24 -8 38 -9 10 -20 19 -24 19 -3 0 -62 -32 -131
-71z"/>
<path d="M3906 1791 c-9 -10 -14 -25 -10 -34 3 -9 97 -69 207 -134 221 -128
262 -142 262 -88 0 28 -11 36 -214 152 -118 68 -217 123 -221 123 -4 0 -14 -8
-24 -19z"/>
<path d="M1748 1218 c-25 -19 -248 -412 -248 -436 0 -28 32 -45 53 -29 15 11
191 307 239 400 18 37 18 40 2 58 -20 22 -25 23 -46 7z"/>
<path d="M3326 1211 c-16 -18 -16 -21 2 -58 48 -93 224 -389 239 -400 21 -16
53 1 53 29 0 24 -223 417 -248 436 -21 16 -26 15 -46 -7z"/>
<path d="M2531 996 c-8 -9 -11 -87 -9 -261 3 -223 5 -249 21 -259 12 -8 22 -8
35 0 15 10 17 36 20 259 2 256 0 275 -38 275 -10 0 -23 -6 -29 -14z"/>
</g>
</svg>
